<svg xmlns="http://www.w3.org/2000/svg" aria-hidden="true" style="position:absolute;width:0;height:0;overflow:hidden"><defs><symbol id="icon-menu" viewBox="0 0 32 32"><path fill="none" stroke="#fffee7" stroke-linecap="round" stroke-width="1.454" d="M24.727 21.818H7.272M24.727 16H7.272m17.455-5.818H7.272" style="stroke:var(--color1, #fffee7)"/></symbol><symbol id="icon-minus" viewBox="0 0 32 32"><path fill="none" stroke="#8023aa" stroke-linecap="round" stroke-linejoin="round" d="M25.666 3.667H6.333a2.667 2.667 0 0 0-2.667 2.667v19.333a2.667 2.667 0 0 0 2.667 2.667h19.333a2.667 2.667 0 0 0 2.667-2.667V6.334a2.667 2.667 0 0 0-2.667-2.667M22.167 16H9.834" style="stroke:var(--color2, #8023aa)"/></symbol><symbol id="icon-playstore" viewBox="0 0 32 32"><path fill="#fffee7" d="m25.298 17.19-3.637 2.033-3.262-3.202 3.288-3.228 3.611 2.019c.213.119.39.292.514.501a1.35 1.35 0 0 1 0 1.376 1.4 1.4 0 0 1-.514.501M6.104 5.847A1.4 1.4 0 0 0 6 6.368v19.266c0 .199.042.384.115.55l10.353-10.163zm11.329 9.226 3.024-2.968L8.065 5.179a1.38 1.38 0 0 0-.878-.164zm0 1.895L7.224 26.99c.277.033.568-.015.841-.168l12.366-6.912z" style="fill:var(--color1, #fffee7)"/></symbol><symbol id="icon-plus" viewBox="0 0 32 32"><path fill="none" stroke="#8023aa" stroke-linecap="round" stroke-linejoin="round" d="M25.666 3.667H6.333a2.667 2.667 0 0 0-2.667 2.667v19.333a2.667 2.667 0 0 0 2.667 2.667h19.333a2.667 2.667 0 0 0 2.667-2.667V6.334a2.667 2.667 0 0 0-2.667-2.667M22.167 16H9.834M16 22.167v-4.833m0-2.667V9.834" style="stroke:var(--color2, #8023aa)"/></symbol><symbol id="icon-close" viewBox="0 0 32 32"><path fill="#fff" d="m8.532 25.333-1.867-1.867 7.467-7.467-7.467-7.467 1.867-1.867 7.467 7.467 7.467-7.467 1.867 1.867-7.467 7.467 7.467 7.467-1.867 1.867-7.467-7.467z" style="fill:var(--color3, #fff)"/></symbol></defs></svg>