<svg xmlns="http://www.w3.org/2000/svg" aria-hidden="true" style="position:absolute;width:0;height:0;overflow:hidden"><defs><symbol id="icon-menu" viewBox="0 0 32 32"><path fill="none" stroke="#fffee7" stroke-linecap="round" stroke-width="1.454" d="M24.727 21.818H7.272M24.727 16H7.272m17.455-5.818H7.272" style="stroke:var(--color1, #fffee7)"/></symbol><symbol id="icon-minus" viewBox="0 0 32 32"><path fill="none" stroke="#8023aa" stroke-linecap="round" stroke-linejoin="round" d="M25.666 3.667H6.333a2.667 2.667 0 0 0-2.667 2.667v19.333a2.667 2.667 0 0 0 2.667 2.667h19.333a2.667 2.667 0 0 0 2.667-2.667V6.334a2.667 2.667 0 0 0-2.667-2.667M22.167 16H9.834" style="stroke:var(--color2, #8023aa)"/></symbol><symbol id="icon-playstore" viewBox="0 0 32 32"><path fill="#fffee7" d="m25.298 17.19-3.637 2.033-3.262-3.202 3.288-3.228 3.611 2.019c.213.119.39.292.514.501a1.35 1.35 0 0 1 0 1.376 1.4 1.4 0 0 1-.514.501M6.104 5.847A1.4 1.4 0 0 0 6 6.368v19.266c0 .199.042.384.115.55l10.353-10.163zm11.329 9.226 3.024-2.968L8.065 5.179a1.38 1.38 0 0 0-.878-.164zm0 1.895L7.224 26.99c.277.033.568-.015.841-.168l12.366-6.912z" style="fill:var(--color1, #fffee7)"/></symbol><symbol id="icon-plus" viewBox="0 0 32 32"><path fill="none" stroke="#8023aa" stroke-linecap="round" stroke-linejoin="round" d="M25.666 3.667H6.333a2.667 2.667 0 0 0-2.667 2.667v19.333a2.667 2.667 0 0 0 2.667 2.667h19.333a2.667 2.667 0 0 0 2.667-2.667V6.334a2.667 2.667 0 0 0-2.667-2.667M22.167 16H9.834M16 22.167v-4.833m0-2.667V9.834" style="stroke:var(--color2, #8023aa)"/></symbol><symbol id="icon-close" viewBox="0 0 32 32"><path fill="#fff" d="m8.532 25.333-1.867-1.867 7.467-7.467-7.467-7.467 1.867-1.867 7.467 7.467 7.467-7.467 1.867 1.867-7.467 7.467 7.467 7.467-1.867 1.867-7.467-7.467z" style="fill:var(--color3, #fff)"/></symbol><symbol id="icon-diamond" viewBox="0 0 32 32" fill="none">
  <path d="M1.00244 11.9849L5.37244 5.35742L8.75744 9.22492L1.00244 11.9849Z" fill="#E1F5FE" />
  <path d="M11.0274 17.0651L1.00244 11.9851L8.75744 9.2251L11.0274 17.0651Z" fill="#81D4FA" />
  <path d="M15.9848 10.7651L8.75732 9.2251L11.0273 17.0651L15.9848 10.7651Z" fill="#64B5F6" />
  <path d="M30.9674 11.9849L26.5974 5.35742L23.2124 9.22492L30.9674 11.9849Z" fill="#0288D1" />
  <path d="M20.9424 17.0651L30.9674 11.9851L23.2124 9.2251L20.9424 17.0651Z" fill="#81D4FA" />
  <path d="M15.9849 10.7651L23.2124 9.2251L20.9424 17.0651L15.9849 10.7651Z" fill="#E1F5FE" />
  <path d="M20.9423 17.0649L15.9848 10.7649L11.0273 17.0649H20.9423Z" fill="#B2EBF2" />
  <path d="M10.7501 2.51489H21.2201L26.5976 5.35739L23.2126 9.22489L15.9851 10.7649L8.75756 9.22489L5.37256 5.35739L10.7501 2.51489Z" fill="#B3E5FC" />
  <path d="M15.9849 29.3176L1.00244 11.9851L11.0274 17.0651L15.9849 29.3176Z" fill="#1E88E5" />
  <path d="M15.9849 29.3176L30.9674 11.9851L20.9424 17.0651L15.9849 29.3176Z" fill="#B3E5FC" />
  <path d="M20.9423 17.0649L15.9848 29.3174L11.0273 17.0649H20.9423Z" fill="#E1F5FE" />
</symbol><symbol id="icon-palm-tree" viewBox="0 0 32 32" fill="none">
  <path d="M15.7926 14.5526C15.7826 14.6126 15.8401 14.6926 15.9551 14.8426C16.2476 15.2226 16.3351 15.7901 16.4526 16.2476C16.6226 16.9201 16.7526 17.6526 16.8226 18.3376C16.8876 18.9926 16.9876 19.6001 16.9876 20.2626V22.3326C16.9876 23.8076 16.7376 25.2876 16.5326 26.7251C16.4601 27.2251 16.3076 27.7701 16.1826 28.2626C16.1301 28.4676 16.1226 28.6851 16.0751 28.8876C16.0676 28.9201 16.0576 28.9526 16.0501 28.9851C15.7376 29.9576 15.8326 30.8151 16.0451 31.0326C16.4076 31.4051 16.9151 31.6701 17.3701 31.7901C18.4076 32.0651 19.5876 32.0701 20.5851 31.6451C21.5151 31.2501 21.3026 30.4501 21.4626 29.5826C21.5551 29.0726 21.6101 28.5101 21.6101 27.9676C21.6101 26.7201 21.6526 25.4626 21.5376 24.2301C21.3901 22.6301 21.1526 21.0301 20.8026 19.4401C20.5851 18.4551 20.4101 17.5351 20.0126 16.5951C19.8176 16.1301 19.6126 15.7226 19.3526 15.2951C19.1051 14.8901 18.9776 14.5051 18.5726 14.2451C18.4751 14.1826 17.8826 13.6626 17.7726 13.7051C17.2251 13.9226 16.6776 14.1376 16.1301 14.3551C15.9101 14.4426 15.8026 14.4826 15.7926 14.5526Z" fill="#855C52" />
  <path d="M30.4049 16.2799C30.2849 14.6174 29.7024 12.8149 28.3349 11.7674C27.6899 11.2749 26.7549 10.9074 25.9824 10.6824C23.9199 10.0849 21.4974 10.4674 19.3899 11.2899C19.8849 10.8549 20.3924 10.4274 20.9299 10.0574C21.4849 9.67488 22.0524 9.32488 22.6549 9.01738C22.8124 8.93738 22.9274 8.91238 22.9074 8.71738C22.8974 8.61488 22.8449 8.51988 22.8049 8.41738C22.6749 8.09988 22.4549 7.86988 22.2699 7.58238C22.0699 7.27738 21.7449 6.93238 21.7874 6.54738C21.9474 6.49238 22.3024 6.73238 22.4574 6.79488C22.7424 6.91238 23.0074 7.04238 23.2824 7.17988C23.5124 7.29488 23.7449 7.40738 23.9699 7.53238C24.0974 7.60488 24.2724 7.77488 24.4174 7.79988C24.6599 7.84488 24.9174 7.58738 25.1199 7.48738C25.2674 7.41488 25.3224 7.42738 25.2599 7.25488C25.1549 6.96238 25.0174 6.71738 24.9024 6.43738C24.7824 6.14238 24.6724 5.82238 24.7124 5.49738C24.9349 5.41988 25.4324 5.82988 25.6049 5.93988C25.7799 6.04988 25.9724 6.17238 26.1324 6.30988C26.2674 6.42488 26.3474 6.63738 26.5449 6.61988C26.6524 6.61238 26.7474 6.51488 26.8424 6.47738C27.0099 6.41238 27.1024 6.32488 27.2574 6.23988C27.5599 6.07238 27.8824 5.90488 28.1949 5.75488C28.5674 5.57738 28.5474 5.49988 28.2974 5.17488C28.1574 4.99238 27.9699 4.84238 27.7999 4.68988C27.3399 4.28238 26.9099 4.01988 26.3574 3.76738C26.1549 3.67488 25.9274 3.66238 25.7299 3.55988C25.5449 3.46738 25.3749 3.42988 25.1649 3.39738C24.7174 3.32238 24.2624 3.28238 23.8074 3.26738C20.9049 3.17238 18.2474 5.23988 17.1449 7.88988C17.1074 7.18238 17.1349 6.46488 17.1349 5.75738C17.1349 5.51738 17.1174 5.29988 17.1599 5.06488C17.1899 4.89738 17.2724 4.30238 17.1224 4.21738C16.9124 4.09988 15.1149 4.12488 15.2299 3.88738C15.3399 3.65988 15.7724 3.58738 15.9849 3.51738C16.2499 3.42988 16.5199 3.36988 16.7774 3.26238C16.9674 3.18488 17.2399 3.19988 17.3974 3.06238C17.5199 2.95488 17.5074 2.74988 17.5399 2.60738C17.5849 2.40238 18.1499 0.0748837 17.9524 0.0223837C17.8399 -0.00761632 17.6274 0.0748837 17.5099 0.0898837C17.3349 0.114884 17.1549 0.177384 16.9849 0.227384C16.7449 0.297384 16.4899 0.364884 16.2599 0.467384C15.7474 0.694884 15.2449 0.959884 14.7749 1.26988C14.5424 1.42238 14.3174 1.58488 14.1049 1.75988C13.1024 2.58488 12.3599 3.64988 12.1099 4.96238C11.8824 6.14988 12.2999 7.32738 12.8874 8.35738C12.3399 7.99738 11.7699 7.66988 11.1799 7.39238C9.19236 6.45988 6.68736 6.72738 4.80736 7.79988C4.15736 8.16988 3.49986 8.66488 2.97236 9.19738C2.47236 9.70238 1.75986 10.7749 1.61986 11.4874C1.59236 11.6324 1.56986 11.7824 1.54736 11.9299C1.55736 11.9299 1.56986 11.9324 1.57986 11.9324C1.83236 11.9524 4.48736 12.2924 4.52986 12.0074C4.56236 11.7874 4.75236 11.5749 4.84486 11.3774C5.11736 10.7974 5.95486 9.66988 6.74486 9.84238C6.77736 10.0124 6.67236 10.1324 6.60736 10.2874C6.50486 10.5349 6.40736 10.7824 6.30486 11.0299C6.17486 11.3474 6.03486 11.6224 6.07986 11.9699C6.40486 12.0099 6.75986 11.9749 7.08736 11.9749C7.37236 11.9749 7.65736 12.0049 7.94236 11.9699C7.94986 11.9699 8.16486 11.2974 8.19986 11.2049C8.31486 10.9249 8.49736 10.6974 8.69736 10.4724C8.80486 10.3524 9.07236 10.0424 9.25486 10.1049C9.29236 10.1174 9.14986 11.4249 9.13986 11.5224C9.11486 11.7224 9.05236 11.9149 9.07736 12.1174C9.71486 12.2874 10.3824 12.2599 11.0324 12.3249C11.3174 12.3549 11.6049 12.4049 11.8899 12.4599C11.8724 12.4599 11.8549 12.4624 11.8374 12.4624C10.9649 12.5324 10.0949 12.6799 9.25736 12.9349C7.59236 13.4399 5.96486 14.2799 4.81236 15.5899C3.69986 16.8549 3.04986 19.2199 3.19736 20.8774C3.25486 21.5024 3.25236 21.6649 3.36986 22.2824C3.44486 22.6774 3.51736 23.1499 3.73986 23.4949C3.82486 23.6299 4.13486 24.2024 4.34736 24.0374C4.49986 23.9199 4.58236 23.6824 4.69486 23.5249C4.99736 23.1049 5.31486 22.6974 5.61486 22.2749C5.74986 22.0849 6.22986 21.6274 6.13736 21.3824C6.02986 21.1024 5.99986 20.7799 5.96486 20.4849C5.91486 20.0599 5.88986 19.6249 5.92486 19.1974C5.93986 19.0124 5.96486 18.8249 6.02736 18.6499C6.05486 18.5724 6.19736 18.2699 6.30486 18.3049C6.35486 18.3199 6.35986 18.5449 6.36486 18.5849C6.38486 18.7549 6.39986 18.9249 6.41486 19.0949C6.43236 19.2974 6.42986 19.4949 6.47236 19.6949C6.52236 19.9349 6.60486 20.1649 6.67736 20.3999C6.71736 20.5299 6.76986 20.7124 6.88236 20.7999C7.01236 20.8999 7.14736 20.7324 7.23486 20.6449C7.46486 20.4174 7.69236 20.1749 7.90486 19.9399C7.99736 19.8374 8.06486 19.7124 8.15486 19.6024C8.18236 19.5699 8.24236 19.5399 8.25986 19.5024C8.29236 19.4324 8.23486 19.2749 8.21986 19.1999C8.18986 19.0649 8.13736 18.9324 8.11486 18.7949C8.06486 18.5024 8.08486 18.2099 8.11486 17.9174C8.13236 17.7399 8.09486 17.2724 8.25986 17.1549C8.38486 17.0649 8.35736 17.2724 8.35736 17.3449C8.35736 17.7149 8.43986 18.0724 8.55736 18.4224C8.60736 18.5699 8.65236 18.7499 8.75736 18.8699C8.90236 19.0324 9.04486 18.8324 9.15986 18.7274C9.52236 18.3924 9.88486 18.0574 10.2524 17.7274C10.3299 17.6574 10.4099 17.5874 10.4899 17.5174C10.6574 17.3774 10.8299 17.2424 10.9999 17.1049C10.6249 17.6699 10.3299 18.2849 10.1574 18.9374C9.94736 19.7199 9.82736 20.7399 9.95236 21.5424C10.0649 22.2724 10.3324 23.0999 10.7424 23.7224C11.0649 24.2099 11.6074 24.7424 12.1374 25.0024C12.4899 25.1749 12.8274 24.1274 12.9024 23.9349C13.0149 23.6349 13.0974 23.3174 13.2249 23.0224C13.3249 22.7874 13.6049 22.3624 13.4524 22.1099C13.3874 21.9974 13.2999 21.8999 13.2349 21.7774C12.8699 21.0999 12.3724 20.4974 12.4674 19.6674C12.5624 19.6874 12.6574 19.8474 12.7099 19.9324C12.8324 20.1374 12.9374 20.3574 13.0774 20.5499C13.2149 20.7399 13.3099 20.9624 13.4799 21.1374C13.5924 21.2524 13.6849 21.4049 13.8374 21.4774C14.0374 21.5724 14.0774 21.3299 14.1174 21.1899C14.1849 20.9449 14.3274 20.7374 14.4224 20.5049C14.5124 20.2874 14.6374 20.0849 14.7324 19.8674C14.8199 19.6674 15.0024 19.4199 14.9624 19.1899C14.9399 19.0624 14.8199 18.9574 14.7599 18.8399C14.6799 18.6699 14.5999 18.4999 14.5299 18.3249C14.4774 18.1874 14.4299 18.0449 14.3924 17.9049C14.3724 17.8324 14.3724 17.6824 14.3324 17.6349C14.4149 17.7649 14.6274 17.8749 14.7424 17.9849C14.8474 18.0824 15.2124 18.5199 15.3849 18.4149C15.6224 18.2699 15.6899 17.9399 15.7974 17.7049C15.9399 17.3799 16.1224 17.0824 16.2524 16.7574C16.4149 16.3424 16.6724 16.0124 16.9149 15.6474C17.0824 15.3924 17.2899 15.1774 17.4524 14.9224C17.5449 14.7774 17.7699 14.5399 17.8249 14.3649C18.9324 14.6324 20.0749 14.8424 21.1599 15.1974C21.5949 15.3374 22.0199 15.5149 22.4499 15.6724C22.7624 15.7874 23.0949 15.8174 23.4124 15.9174C23.5924 15.9749 23.7974 16.1249 23.9199 15.9099C24.0074 15.7524 24.0299 15.5549 24.1149 15.3849C24.2249 15.1649 24.2824 14.9449 24.3374 14.7074C24.3824 14.5299 24.3899 14.3199 24.4599 14.1549C24.5074 14.0474 24.5749 13.7949 24.6649 13.7224C24.8574 13.5699 24.8999 13.9049 24.9474 14.0624C25.1024 14.5924 25.0649 15.2024 25.0524 15.7499C25.0449 16.0024 24.9524 16.2524 24.9824 16.5024C25.0974 16.4999 25.2149 16.5849 25.3224 16.6199C25.4974 16.6799 25.6874 16.7174 25.8674 16.7624C25.9749 16.7874 26.1874 16.8874 26.2899 16.8749C26.4274 16.8574 26.4149 16.7374 26.4849 16.6274C26.6699 16.3449 26.7999 16.0149 26.9174 15.6924C27.0674 15.2849 27.0949 14.8324 27.3099 14.4499C27.3174 14.4349 27.4674 14.7874 27.4774 14.8199C27.5574 15.0649 27.6124 15.2549 27.6449 15.5049C27.6624 15.6299 27.6999 15.7549 27.7199 15.8799C27.7524 16.0874 27.7499 16.2924 27.7499 16.5074C27.7499 16.8599 27.7124 17.2399 27.7549 17.5874C28.0149 17.6249 28.2549 17.8249 28.4999 17.9074C28.6874 17.9699 30.2574 18.5549 30.2574 18.6024C30.2524 18.4574 30.3224 18.3049 30.3374 18.1599C30.3549 17.9699 30.3749 17.7874 30.4149 17.5974C30.4924 17.1749 30.4374 16.7099 30.4049 16.2799Z" fill="#757F3F" />
  <path d="M11.6252 17.4924C11.5527 17.5374 11.5077 17.6374 11.4677 17.7149C11.2377 18.1499 11.0602 18.6174 10.9352 19.0949C10.7502 19.8049 10.6877 20.5524 10.7902 21.2799C10.8552 21.7574 10.9977 22.2249 11.1977 22.6649C11.3002 22.8874 11.4152 23.0999 11.5452 23.3074C11.6577 23.4849 11.7702 23.8299 12.0327 23.6424C12.1752 23.5424 12.4052 23.1649 12.3427 22.9774C12.1977 22.5499 11.9177 22.1674 11.7527 21.7399C11.5752 21.2824 11.5027 20.7849 11.4802 20.2949C11.4627 19.8824 11.4827 19.4674 11.5327 19.0574C11.5627 18.8174 11.6002 18.5824 11.6477 18.3449C11.6727 18.2174 11.7002 18.0899 11.7302 17.9649C11.7502 17.8749 11.8827 17.3324 11.6252 17.4924ZM9.96767 13.3249C9.94671 13.3106 9.92281 13.3011 9.89772 13.2972C9.87263 13.2933 9.84698 13.2951 9.82267 13.3024C9.37267 13.4249 8.93017 13.5924 8.50017 13.7799C7.85267 14.0624 7.23017 14.4049 6.66017 14.8249C6.00767 15.3024 5.42267 15.8824 4.98267 16.5649C4.46517 17.3724 4.14017 18.2899 4.01017 19.2399C3.91017 19.9899 3.92767 20.7574 4.04267 21.5049C4.07767 21.7274 4.12267 21.9499 4.17517 22.1699C4.21267 22.3299 4.24017 22.5749 4.36267 22.6874C4.47267 22.7849 4.52267 22.6924 4.60017 22.6049C4.73267 22.4574 4.87517 22.3149 4.99767 22.1599C5.09017 22.0449 5.08767 21.8899 5.05267 21.7499C4.99017 21.5149 4.94267 21.2749 4.90767 21.0324C4.85767 20.6824 4.83017 20.3274 4.83017 19.9724C4.83017 19.5399 4.87267 19.1074 4.95767 18.6824C5.05519 18.1958 5.2122 17.7231 5.42517 17.2749C5.67017 16.7599 5.99017 16.2849 6.36767 15.8599C6.82017 15.3524 7.35017 14.9149 7.92267 14.5499C8.26043 14.3352 8.61109 14.1415 8.97267 13.9699C9.17017 13.8749 9.37017 13.7874 9.57267 13.7049C9.68267 13.6599 9.97267 13.6149 10.0152 13.4799C10.0327 13.4099 10.0102 13.3549 9.96767 13.3249ZM2.90767 10.9849C2.82017 10.8074 2.97767 10.6274 3.10017 10.4424C3.63017 9.62991 4.34267 8.93241 5.17017 8.42491C5.91767 7.96491 6.75517 7.66991 7.61767 7.52491C7.89767 7.47741 8.17767 7.45491 8.45767 7.43741C8.55017 7.43241 9.54517 7.34491 9.31017 7.66241C9.24767 7.74491 9.08517 7.74741 8.99267 7.75491C8.74267 7.77741 8.49267 7.81491 8.24767 7.86741C7.76517 7.96991 7.29517 8.12241 6.84517 8.32241C6.24017 8.58991 5.67017 8.94491 5.16767 9.37741C4.80267 9.68991 4.48517 10.0524 4.19517 10.4349C4.02517 10.6599 3.88517 11.0424 3.60017 11.1524C3.44017 11.2149 3.13017 11.2149 2.99517 11.0974C2.95517 11.0599 2.92517 11.0224 2.90767 10.9849ZM14.4702 2.47241C14.4402 2.45741 14.4002 2.45491 14.3527 2.47241C14.2452 2.50741 14.0627 2.73241 13.9852 2.81491C13.4402 3.40241 13.1302 4.23741 13.0227 5.02241C12.9577 5.47991 12.9852 5.94741 13.0852 6.39991C13.1352 6.62741 13.2052 6.85241 13.2902 7.06991C13.3352 7.18491 13.3627 7.28741 13.4577 7.36741C13.5452 7.44491 13.6377 7.43991 13.7352 7.38491C13.8002 7.34741 13.9027 7.28491 13.9527 7.22741C14.0627 7.09991 13.9202 6.90491 13.8777 6.77741C13.7502 6.40241 13.5902 6.03241 13.5452 5.63741C13.5002 5.23991 13.5552 4.82241 13.6452 4.43241C13.7452 3.99491 13.9077 3.57241 14.1302 3.18491C14.2377 2.99741 14.3677 2.82991 14.4877 2.65241C14.5402 2.56741 14.5227 2.49991 14.4702 2.47241Z" fill="#BDCF46" />
</symbol><symbol id="icon-leafless-tree" viewBox="0 0 32 32" fill="none">
  <path d="M18.2998 14.2499L20.6248 10.7249C20.9498 10.2249 21.4748 9.8749 22.0498 9.7499C22.7248 9.5999 23.6998 9.2749 24.3998 8.4499C25.6498 7.0249 26.3248 6.0749 26.3248 6.0749L25.7498 5.5749C25.7498 5.5749 24.2748 6.9999 23.6498 7.5499C23.1248 7.9999 22.5498 8.3249 21.4248 8.3999C21.0248 8.4249 20.6998 8.1249 20.6998 7.7249C20.6998 7.1749 20.6748 6.5749 20.6498 6.1749C20.6498 5.8999 20.7248 5.6249 20.8998 5.3999L21.4998 4.6499L20.9998 4.3249L20.1998 5.2749C19.9998 5.4999 19.6498 5.5749 19.3998 5.4249L17.8998 4.5499L17.6748 4.9999L18.9998 5.9249C19.2748 6.1249 19.4248 6.4499 19.4248 6.7999V8.8999L16.0748 12.5499L18.2748 14.2749L18.2998 14.2499ZM13.2498 5.2999C13.2498 5.2249 13.1998 3.7749 13.1498 2.8749C13.1498 2.4249 13.2748 1.9749 13.5748 1.6249L13.7998 1.3499L13.2748 1.0249L12.2998 1.9749C11.8748 2.3999 11.6248 2.9499 11.5998 3.5499L11.4748 6.7999L13.2498 5.2999ZM14.8998 19.5999L9.9748 16.6499L10.4748 13.7249L9.8248 13.2749L8.4748 16.1999C8.3498 16.4749 8.0748 16.6749 7.7498 16.6999L6.02481 16.8249C5.54981 16.8499 5.0498 16.6999 4.6748 16.3999L1.6748 13.9999L1.1748 14.4749L3.7248 17.1499C3.8498 17.2999 3.7748 17.5249 3.5748 17.5499L1.6748 17.7999L1.7498 18.3499L7.39981 18.0999C8.2498 18.0749 9.0998 18.3749 9.7248 18.9499C11.2998 20.3749 14.1998 22.9749 14.2248 22.8999C14.2248 22.7749 14.9248 19.5999 14.9248 19.5999H14.8998Z" fill="#6C4A41" />
  <path d="M13.4252 30.325C13.3502 31.175 19.3002 31.275 19.2002 30.3C19.1502 29.875 19.0752 26.625 19.0752 26.625C19.0752 26.1 19.2752 25.575 19.6252 25.175L24.1752 19.85C24.5502 19.425 24.9502 19.025 25.4252 18.7C26.1252 18.2 27.1502 17.475 27.4752 17.25C27.9752 16.925 28.6752 17.025 28.9502 17.175C29.2252 17.325 30.4502 17.725 30.4502 17.725L30.8502 17.175C30.8502 17.175 29.3752 16.325 29.0252 16.1C28.2502 15.65 27.2002 15.85 26.6252 16.175C25.9502 16.55 24.8752 17.225 24.8752 17.225C24.8752 17.225 24.8002 15.95 24.7502 15.15C24.7502 14.85 24.8252 14.525 25.0002 14.275C25.5502 13.525 26.6752 12.025 26.6752 12.025L26.1252 11.625C26.1252 11.625 24.5252 13 24.1752 13.4C23.9752 13.65 23.4252 13.925 23.0752 13.55C22.7752 13.225 21.9502 12.5 21.9502 12.5L21.5252 12.85L22.9002 14.55C23.0252 14.7 23.1002 14.9 23.1002 15.075V17.975C23.1252 17.975 19.4502 21.725 18.9752 22.175C18.9002 18.675 19.9502 18.6 19.9002 16.65C19.8502 15.275 18.7752 14.2 18.2502 13.625C17.8252 13.15 15.6752 11.025 14.7502 10.15C14.5252 9.925 14.1752 9.6 14.1002 9.1C14.0252 8.65 13.9002 8.025 13.8502 7.65C13.7252 7 14.0002 6.425 14.3752 5.9C14.7002 5.45 15.7502 3.925 16.0752 3.55C16.4002 3.175 16.8752 2.7 17.4752 2.525C18.0752 2.35 19.8502 1.6 19.8502 1.6L19.6502 1.125C19.6502 1.125 17.1002 1.75 16.7502 1.85C16.4002 1.95 15.8752 2.1 15.2502 2.75C14.6252 3.4 12.2752 5.4 11.9752 5.675C11.6502 5.95 11.1002 6.475 11.1002 7.2C11.1002 7.925 11.2752 9.575 11.2752 9.575L8.5002 9.375C7.9752 9.375 7.1252 9.05 6.7752 8.675L4.7502 6.45L4.1002 6.975L5.7002 9.4L1.9502 10.325L2.0502 10.9C2.0502 10.9 4.5752 10.575 5.1002 10.5C5.6252 10.425 6.9252 10.6 8.4752 10.85C10.1002 11.1 11.2002 11.05 12.7002 12.875C13.0502 13.3 13.9752 14.5 14.6752 15.425C15.2002 16.1 15.3252 17 15.0252 17.8C14.3752 19.55 13.4002 20.525 13.5752 23.175C13.7002 24.85 13.4502 29.775 13.4002 30.25L13.4252 30.325Z" fill="#875C51" />
</symbol><symbol id="icon-hyacinth" viewBox="0 0 32 32" fill="none">
  <path d="M8.26987 20.7875C9.73737 21.635 15.2649 25.825 16.3799 28.665C16.7749 29.6675 15.6549 30.6375 13.9224 29.6675C12.0524 28.62 10.6549 26.8625 9.39237 25.17C8.68737 24.225 7.90987 22.39 7.70737 21.485C7.59987 21.0025 7.84487 20.5425 8.26987 20.7875Z" fill="#7CB243" />
  <path d="M15.67 29.385L15.735 27.16C15.405 26.3775 13.6575 25.0575 13.0525 24.485C12.3975 23.865 11.7175 23.27 11.0075 22.715C10.4425 22.2725 8.18749 20.505 8.14499 20.765C7.99749 21.6625 8.91249 23.3975 11.6775 26.29C14.07 28.79 15.67 29.385 15.67 29.385Z" fill="#388E3C" />
  <path d="M15.8877 19.3826V28.7501" stroke="#7CB243" stroke-width="1.15725" stroke-miterlimit="10" />
  <path d="M21.0925 23.28C22.8325 22.015 23.785 21.59 24.2975 21.5375C24.1675 21.15 23.415 20.9624 20.4975 22.8549C19.45 23.5324 12.67 29.0125 12.925 30.1725C12.9925 30.4825 13.42 30.685 13.9 30.815C14.0675 29.3975 20.1225 23.985 21.0925 23.28Z" fill="#BBD047" />
  <path d="M24.295 21.5376C23.7825 21.5901 22.83 22.0151 21.09 23.2801C20.12 23.9851 14.045 29.3976 13.875 30.8151C14.4075 30.9576 15.01 31.0076 15.27 31.0001C16.1075 30.9751 16.9425 30.6776 17.565 30.1101C18.07 29.6476 23.7225 22.6551 24.22 22.0326C24.275 21.9626 24.3575 21.7251 24.295 21.5376Z" fill="#7CB243" />
  <path d="M20.6048 13.4575C20.6048 13.4575 21.8498 13.0425 22.5423 12.18C23.1248 11.455 23.3473 10.2475 22.8298 9.77496C22.3123 9.30246 21.6523 11.08 20.4348 9.84996C20.3448 9.75746 18.0923 4.80746 18.0923 4.80746C18.0923 4.80746 20.0298 4.05246 19.5898 2.14246C19.4248 1.42496 18.1198 2.58996 17.5173 2.97496C17.4473 2.40746 16.6573 0.722463 16.2973 1.03996C14.9898 2.19246 15.8223 3.72496 16.0123 4.14246C16.3123 4.80246 15.1973 5.46746 13.9348 5.76496C12.5773 6.08496 11.7473 4.58996 11.2423 5.11746C10.4998 5.89496 11.5398 7.16996 12.3923 8.05496C12.3923 8.05496 12.8923 10.82 12.0673 11.6025C11.1823 12.4425 10.8273 12.805 11.1048 14.06C11.2173 14.57 10.1598 13.4675 9.80232 13.0725C9.58232 12.83 9.30232 12.535 8.98482 12.62C8.68732 12.7025 8.58232 13.0725 8.58232 13.3825C8.57982 14.155 8.91982 15.3275 9.49732 15.8425C8.80482 16.225 8.48482 17.1225 8.39982 17.56C8.31482 17.9975 8.33732 18.3125 8.70982 18.38C9.24732 18.475 10.3148 17.3625 11.2323 17.54C11.7373 17.6375 13.7673 20.84 13.8723 21.34C14.0923 22.395 13.1423 23.32 13.7123 23.7525C14.4173 24.285 15.9298 23.39 16.0798 21.795C16.0798 21.795 16.6073 23.145 18.3198 23.2175C19.1598 23.2525 19.4648 22.9025 19.4698 22.67C19.4798 22.285 18.8773 21.9075 18.5998 21.6375C18.1448 21.2 18.2373 20.7375 18.5998 20.415C19.1498 19.925 19.6798 20.3675 19.9348 20.91C20.0423 21.1375 20.3523 21.98 20.8398 21.875C21.2048 21.7975 21.3723 21.5 21.4248 21.175C21.4948 20.74 21.5648 19.3825 20.4698 18.69C20.9598 18.5725 21.9698 18.315 22.3498 17.665C22.4423 17.52 20.6048 13.4575 20.6048 13.4575Z" fill="#7350D3" />
  <path d="M17.7649 12.0874C18.1174 11.6899 17.7524 11.4274 17.3849 11.3174C16.8599 11.1224 15.2499 10.5749 15.2749 9.92243C15.2974 9.73743 15.3999 9.56243 15.4924 9.40743C15.8699 8.72743 16.3799 8.02493 16.3974 7.22493C16.3749 6.85743 16.0549 6.62993 15.6974 6.69743C14.7649 6.78993 14.2224 7.69993 13.6349 8.33743C13.2924 8.70993 13.1424 8.59993 12.8924 8.30243C12.5799 7.93493 12.3474 7.40993 12.1399 6.82993C11.8599 6.04993 11.1049 6.52743 10.9549 7.30743C10.8299 7.95243 11.0449 8.90243 11.3724 9.46993C11.4849 9.66493 11.6574 9.87243 11.4499 10.0524C10.9224 10.5149 10.2049 10.4724 9.56994 10.7599C9.31994 10.8724 8.75244 11.2749 9.20744 11.7949C9.48744 12.1174 10.3699 12.3424 11.1224 12.2224C11.4324 12.1724 12.0799 11.9724 12.3074 12.3674C12.7074 13.0624 12.4974 14.2224 13.0174 15.0824C13.2624 15.5374 13.7324 15.6824 14.0099 15.1824C14.3949 14.5549 14.4524 13.7799 14.4774 13.0449C14.4999 12.3649 14.8499 12.3874 15.2199 12.4699C16.0349 12.6449 17.0924 12.8449 17.7649 12.0874Z" fill="#AB7CF7" />
  <path d="M16.7976 20.2949C16.8026 19.8049 15.4851 19.3549 15.0551 19.1124C14.7401 18.9349 14.5451 18.7949 14.7551 18.4099C15.0901 17.9099 15.5701 17.4624 15.6951 16.8349C15.8151 16.2249 15.5476 15.7874 15.0501 15.9474C14.4901 16.1274 13.9876 16.8449 13.4826 17.1274C13.1051 17.3399 12.7801 17.2574 12.5351 16.8749C12.1101 16.2074 12.1176 15.2674 11.6976 14.9699C11.4551 14.7824 11.0326 14.9374 10.8851 15.1749C10.3951 15.9674 10.5851 17.1574 10.9426 17.9174C11.0101 18.0574 11.0851 18.2199 11.0176 18.3624C10.7226 18.7424 10.1601 18.7324 9.72759 18.8349C9.39759 18.9174 9.07759 19.0624 9.08009 19.4649C9.08259 19.8149 9.27759 20.2599 10.9326 20.2399C11.2351 20.2374 11.6601 20.1574 11.6326 20.5349C11.5951 21.0799 11.5476 21.8499 11.8976 22.6424C12.1751 23.2749 12.8401 23.2024 13.0426 22.6849C13.3526 21.8949 13.3451 21.3724 13.5151 20.9774C13.6601 20.6399 13.9926 20.5749 14.2076 20.6699C14.9426 20.9899 15.7501 21.1449 16.4701 20.7899C16.6626 20.6974 16.7951 20.5224 16.7976 20.2949ZM23.0401 7.41994C22.2576 6.69994 21.6651 6.51244 20.8051 6.25494C21.0451 5.61994 21.2176 5.04494 21.3401 4.37994C21.4676 3.69244 21.2301 3.01994 20.6301 3.15744C20.3976 3.20994 20.2051 3.37494 20.0601 3.56494C19.9176 3.75494 19.4151 5.02494 19.2201 5.32494C19.0451 5.59244 18.8776 5.24994 18.6626 4.98994C17.7001 3.81744 16.6401 3.74744 16.5401 4.31994C16.4701 4.70494 17.0201 4.91244 17.5301 6.46744C17.7176 7.03744 17.9201 7.92994 18.2751 8.41244C18.4926 8.70744 19.1301 9.09994 19.4151 9.33244C20.0151 9.81994 20.9026 10.8174 21.3351 10.7124C21.5176 10.6674 21.6301 10.3199 21.4576 9.81994C21.2251 9.14244 20.5126 8.38744 20.7026 8.16744C20.7626 8.09744 21.2601 8.12994 21.8051 8.24494C22.3876 8.36744 22.8626 8.68744 23.2926 8.46494C23.5701 8.32494 23.3026 7.66494 23.0401 7.41994ZM23.0426 17.3274C22.9101 16.7924 22.6626 16.2874 22.3201 15.8549C22.2576 15.7874 22.2251 15.6899 22.3101 15.6299C22.8651 15.1424 23.5501 14.5474 23.4726 13.7374C23.4076 13.1924 23.0126 13.1424 22.5776 13.3624C22.1751 13.5274 21.8201 13.7499 21.3851 13.7824C21.1201 13.8024 21.0776 13.6724 21.0651 13.4499C21.0026 12.3074 20.5026 10.6899 19.4026 10.8274C19.0401 10.8724 18.9776 11.3074 19.0326 11.6324C19.0726 12.0374 19.2776 13.3949 19.2026 13.7124C19.0976 14.1549 18.8476 14.1574 17.7251 14.0874C17.2201 14.0874 16.3076 13.8849 16.2276 14.6174C16.1576 15.2699 17.0501 15.7949 17.7201 15.8924C17.9151 15.9299 18.3076 15.9174 18.3726 16.1649C18.4026 16.2874 18.3601 16.4149 18.3076 16.5299C18.0976 16.9949 17.7601 17.3874 17.4626 17.7999C17.3226 17.9949 17.0551 18.5599 17.8226 18.7824C18.3976 18.9474 19.7726 18.0749 20.2176 17.1424C20.3451 16.8749 20.6776 16.8049 20.9101 17.0224C21.2251 17.3174 21.6201 17.7924 21.7851 18.1099C21.9226 18.3724 22.0926 18.6649 22.3826 18.7324C22.6601 18.7949 22.9451 18.5924 23.0551 18.3299C23.1801 18.0149 23.1226 17.6524 23.0426 17.3274ZM15.0076 2.03744C14.6701 1.30494 14.1876 1.21244 13.8626 1.65494C13.5376 2.09744 13.8401 3.80494 13.8401 3.80494C13.8401 3.80494 12.9301 3.66244 12.7301 3.65994C12.3701 3.65494 12.0376 3.68994 11.9501 3.92744C11.8626 4.16744 12.1901 4.73994 13.0726 5.32744C14.1901 6.07244 15.1426 6.14244 15.6301 5.67744C15.9251 5.39494 15.8501 3.86744 15.0076 2.03744Z" fill="#AB7CF7" />
  <path d="M13.14 11.6276C13.6536 11.6276 14.07 11.2112 14.07 10.6976C14.07 10.184 13.6536 9.76758 13.14 9.76758C12.6263 9.76758 12.21 10.184 12.21 10.6976C12.21 11.2112 12.6263 11.6276 13.14 11.6276Z" fill="#FCEBCD" />
  <path d="M19.9199 7.99763C20.2045 7.83333 20.227 7.33954 19.9702 6.89473C19.7134 6.44992 19.2745 6.22252 18.9899 6.38683C18.7053 6.55113 18.6828 7.04492 18.9396 7.48973C19.1964 7.93454 19.6353 8.16194 19.9199 7.99763Z" fill="#FCEBCD" />
  <path d="M13.0726 19.98C13.4426 19.7906 13.5435 19.2485 13.2981 18.7692C13.0527 18.2899 12.5539 18.0548 12.184 18.2442C11.814 18.4336 11.7131 18.9757 11.9585 19.455C12.2039 19.9343 12.7027 20.1694 13.0726 19.98Z" fill="#FCEBCD" />
  <path d="M20.3398 16.0129C20.7208 16.0075 21.0238 15.5868 21.0165 15.0732C21.0093 14.5597 20.6945 14.1477 20.3135 14.1531C19.9324 14.1585 19.6294 14.5792 19.6367 15.0927C19.6439 15.6063 19.9587 16.0183 20.3398 16.0129Z" fill="#FCEBCD" />
</symbol><symbol id="icon-cherry-blossom" viewBox="0 0 32 32" fill="none">
  <path d="M15.3526 3.6451C15.3526 3.6451 15.8026 1.4626 16.2826 1.3351C16.7651 1.2076 18.8676 1.6626 19.9001 2.2101C21.3426 2.9726 22.2326 4.2451 22.4451 5.7951C22.6701 7.4551 22.0276 8.8451 22.0276 8.8451C22.0276 8.8451 23.5351 7.9476 25.3326 8.1076C27.1301 8.2676 28.4776 9.1351 28.9926 9.7776C29.5051 10.4201 30.2126 11.1251 30.1151 11.4476C30.0176 11.7676 28.1576 12.9251 28.2526 13.2126C28.3501 13.5026 30.5326 13.3401 30.7551 13.7251C30.9801 14.1101 31.4301 16.5826 29.7926 18.3476C28.1551 20.1126 26.5501 20.3701 26.5501 20.3701C26.5501 20.3701 28.1701 21.8926 28.2551 23.9726C28.3251 25.6751 27.8676 26.6926 26.9376 27.0476C26.0076 27.4001 24.2726 26.2776 24.2726 26.2776C24.2726 26.2776 25.7801 28.9726 25.1076 29.3901C24.4326 29.8076 24.1001 29.0626 23.8226 29.1326C23.5951 29.1901 23.9826 29.7426 23.4701 30.2251C22.9576 30.7076 20.7426 31.0276 18.7851 29.9676C16.8276 28.9076 16.2176 27.2401 16.2176 27.2401C16.2176 27.2401 15.6901 29.2651 13.2826 30.2926C10.8751 31.3201 9.12261 30.0626 8.80261 29.8701C8.48261 29.6776 8.61011 28.1376 8.67511 27.8801C8.74011 27.6226 9.02761 27.0126 8.83511 26.8851C8.64261 26.7576 8.00011 27.6551 7.55011 27.9451C7.10011 28.2351 6.52261 28.5551 5.94511 28.0726C5.36761 27.5901 3.98761 25.9851 4.34011 23.8351C4.69261 21.6851 5.91261 20.4651 5.91261 20.4651C5.91261 20.4651 3.34511 20.2401 2.09261 18.0576C0.840114 15.8751 1.00511 13.6926 1.23011 13.4026C1.45511 13.1126 3.38011 13.0826 3.38011 13.0826C3.38011 13.0826 1.55011 12.0226 1.74261 11.1901C1.93511 10.3551 2.86511 10.9976 3.12261 10.7401C3.38011 10.4826 2.46761 9.5076 3.18761 8.9976C3.72761 8.6151 4.67761 7.9026 6.49261 7.7551C8.40511 7.5976 9.73511 8.5576 9.73511 8.5576C9.73511 8.5576 8.91761 7.1751 9.25511 5.6051C9.52261 4.3626 10.4426 3.2951 11.3076 2.6851C12.1726 2.0751 13.3301 1.5926 13.8426 1.5926C14.3551 1.5926 15.3526 3.6451 15.3526 3.6451Z" fill="#FFBCD8" />
  <path d="M19.9201 11.5924C20.2651 11.9899 20.9926 11.4474 21.4701 10.6374C21.8351 10.0199 22.2526 8.9649 22.1051 8.8349C21.9576 8.7049 20.8201 9.5899 20.4351 10.0274C20.0526 10.4674 19.6476 11.2774 19.9201 11.5924ZM21.8551 19.3324C21.7626 19.9224 23.2326 20.3399 24.0151 20.4324C24.7576 20.5199 26.5476 20.6199 26.5526 20.3674C26.5601 20.1149 25.1401 19.1324 24.0151 18.8949C23.0276 18.6874 21.9351 18.8299 21.8551 19.3324ZM16.3151 23.0974C15.8126 23.0674 15.6251 24.2374 15.7176 25.1374C15.8101 26.0374 16.0026 27.2124 16.2176 27.2349C16.4326 27.2574 16.8051 25.9574 16.8976 24.7399C16.9551 23.9749 16.7651 23.1249 16.3151 23.0974ZM5.91512 20.4649C5.95012 20.6324 7.68512 20.6324 8.61262 20.3674C9.54012 20.1024 10.1226 19.5599 10.0176 19.1624C9.91262 18.7649 8.74762 18.8774 8.09512 19.1224C7.24762 19.4399 5.88262 20.2999 5.91512 20.4649ZM9.83262 8.6499C9.63512 8.7949 10.2701 10.0024 10.6951 10.5199C11.1201 11.0374 11.7826 11.6074 12.1126 11.4599C12.4451 11.3149 12.1401 10.2674 11.4101 9.5649C11.0576 9.2249 10.0326 8.5049 9.83262 8.6499Z" fill="#FCA2C8" />
  <path d="M19.5999 11.4974C19.1449 11.2624 17.7174 13.1874 16.0524 13.1199C14.3874 13.0524 12.6724 11.2874 12.3699 11.5574C12.0674 11.8274 13.2824 13.7774 12.6474 15.6824C12.0674 17.4249 10.0324 18.5849 10.2524 19.0149C10.4574 19.4174 12.4299 18.5824 14.0699 19.4099C15.9824 20.3774 15.6174 22.8474 16.2899 22.8649C16.9624 22.8824 16.6649 20.7099 18.3249 19.6624C19.9224 18.6524 21.6274 19.4374 21.7724 18.9224C21.9399 18.3174 19.7724 17.5699 19.3199 15.5024C18.7924 13.1149 20.0724 11.7399 19.5999 11.4974Z" fill="#BF0477" />
  <path d="M14.9325 14.7075C14.59 14.8225 13.7025 16.855 13.8425 17.105C13.9825 17.355 15.805 18.9275 16.2875 18.9275C16.77 18.9275 18.3575 17.4025 18.3725 17.1675C18.3875 16.935 17.595 14.8625 17.33 14.7075C17.065 14.5525 15.26 14.5975 14.9325 14.7075Z" fill="#F2A159" />
  <path d="M17.2001 13.52C16.8076 13.885 16.7701 14.585 17.2451 14.9775C17.7526 15.395 18.4426 15.2375 18.7351 14.83C18.9926 14.475 19.0176 13.9275 18.5876 13.5425C18.3226 13.305 17.6976 13.0575 17.2001 13.52ZM17.8201 17.4275C17.7526 18.0825 18.3051 18.58 18.8576 18.5675C19.5801 18.5525 19.8476 17.95 19.8401 17.54C19.8276 16.9875 19.4451 16.5125 18.8351 16.535C18.2251 16.5575 17.8776 16.875 17.8201 17.4275ZM16.2626 18.6C15.7776 18.6125 15.2701 18.9375 15.2801 19.65C15.2901 20.305 15.8001 20.5975 16.3076 20.5975C16.8151 20.5975 17.2326 20.235 17.2326 19.615C17.2326 18.995 16.7826 18.5875 16.2626 18.6ZM13.1701 16.49C12.4476 16.49 12.1426 16.9875 12.1426 17.5525C12.1426 18.1175 12.5601 18.5275 13.2276 18.5C13.8026 18.4775 14.1601 17.99 14.1076 17.45C14.0501 16.8625 13.7801 16.49 13.1701 16.49ZM13.6651 13.385C13.2501 13.7875 13.2351 14.48 13.6776 14.8425C14.0226 15.1275 14.6376 15.2275 15.0426 14.8075C15.4501 14.39 15.3801 13.7925 15.0201 13.4425C14.6601 13.09 14.0726 12.99 13.6651 13.385Z" fill="#FDD0B1" />
</symbol><symbol id="icon-snowflake" viewBox="0 0 32 32" fill="none">
  <path d="M17.4576 12.6324L17.3576 8.02493C17.3576 8.02493 19.7601 6.75493 20.2201 5.91743C20.6801 5.07993 20.4901 3.67493 19.9776 3.62243C19.4651 3.56993 17.2501 5.18993 17.0626 4.99993C16.8726 4.80993 17.9801 3.45993 17.9276 2.94743C17.8726 2.43493 16.2251 1.17993 16.2251 1.17993L14.3626 3.29743C14.3626 3.29743 14.9026 4.97243 14.8226 5.13493C14.7426 5.29743 12.2026 3.72993 11.6626 3.83743C11.1226 3.94493 11.3076 5.04243 11.4951 5.55743C11.6851 6.06993 15.1451 7.67243 15.1451 7.67243L14.9951 12.7024C14.9951 12.7024 14.3626 12.6924 14.2001 12.7749C14.0376 12.8549 13.6501 13.5049 13.6501 13.5049C13.6501 13.5049 10.0126 11.5349 9.9851 11.1299C9.9576 10.7249 10.0401 7.10493 9.8501 6.72743C9.6601 6.34993 8.8501 5.90993 8.4451 5.90993C8.0401 5.90993 7.7701 9.91243 7.5276 9.91243C7.2851 9.91243 6.3651 7.56243 6.0951 7.56243C5.8251 7.56243 3.7326 7.91243 3.7326 7.91243L4.5301 11.0999L7.0151 11.6124L3.9726 15.0524C3.9726 15.0524 4.7176 15.7774 5.4201 15.6149C6.1226 15.4524 8.1476 13.4274 8.3626 13.4274C8.5776 13.4274 12.2526 15.5349 12.2526 15.5349C12.2526 15.5349 12.0901 15.9124 12.1976 16.1299C12.3051 16.3449 12.4951 16.6149 12.4951 16.6149C12.4951 16.6149 8.8501 18.8299 8.6051 18.7749C8.3601 18.7199 5.9051 16.9649 5.2026 16.9649C4.5001 16.9649 4.0676 17.8824 4.0676 17.8824L6.9851 20.3399L4.5276 21.5549L3.4751 23.7424C3.4751 23.7424 5.8526 24.5799 6.1751 24.4974C6.4976 24.4149 7.3376 22.4174 7.4976 22.3649C7.6601 22.3099 7.7201 22.8199 7.7201 22.8199C7.7201 22.8199 8.5776 25.4999 8.9026 25.4174C9.2276 25.3349 10.0376 24.8224 10.1451 24.4174C10.2526 24.0124 9.9851 20.7999 9.9851 20.7999L13.8201 18.7174C13.8201 18.7174 14.1251 19.2124 14.3326 19.3624C14.4951 19.4799 15.3026 19.5574 15.3026 19.5574L15.1951 23.7424C15.1951 23.7424 11.1951 25.4674 11.0601 25.9524C10.9251 26.4374 10.9551 27.5224 11.3351 27.6574C11.7126 27.7924 14.6626 26.4424 14.7976 26.5499C14.9326 26.6574 14.7401 28.6549 14.7401 28.6549C14.7401 28.6549 16.3251 30.8949 16.6751 30.6799C17.0251 30.4649 18.2526 29.0899 18.2626 28.8349C18.2851 28.3524 17.0826 26.6899 17.1051 26.5924C17.1526 26.3799 19.6001 28.1424 20.0326 28.0874C20.4651 28.0324 20.7876 27.5749 20.7876 27.0599C20.7876 26.5474 17.4926 24.1174 17.4926 24.1174L17.4401 19.4749C17.4401 19.4749 18.0776 19.4399 18.2951 19.3324C18.5101 19.2249 18.9401 18.2474 18.9401 18.2474L22.8676 20.8799C22.8676 20.8799 22.7051 25.3099 23.1101 25.5799C23.5151 25.8499 24.2451 26.0124 24.5151 25.8774C24.7851 25.7424 24.8126 21.9624 24.8126 21.9624L26.5151 23.5024C26.5151 23.5024 28.9601 23.2849 28.9601 22.9599C28.9601 22.6349 28.4701 20.7999 28.2726 20.6399C27.9201 20.3549 26.3651 20.4949 26.1826 20.3974C26.0376 20.3199 29.0276 19.1274 29.0276 18.6424C29.0276 18.1574 28.0501 17.3899 27.7801 17.3624C27.5101 17.3349 23.9776 18.9124 23.9776 18.9124L19.8726 16.4824C19.8726 16.4824 20.0876 16.1049 20.0876 15.9149C20.0876 15.7249 19.8201 15.4074 19.8201 15.4074L24.0301 13.1074C24.0301 13.1074 27.7301 14.4299 28.0801 14.2699C28.4301 14.1074 28.7276 13.8099 28.7276 13.5149C28.7276 13.2199 25.6026 11.7824 25.8376 11.6524C26.0176 11.5524 27.7551 11.7599 28.0251 11.6524C28.2951 11.5449 29.1551 9.35493 29.1276 9.24743C29.1001 9.13993 26.1876 8.41243 26.1876 8.41243L24.8901 9.95243C24.8901 9.95243 25.1051 7.03493 24.7826 6.71243C24.4601 6.38993 23.5876 6.54993 23.2376 6.79243C22.8876 7.03493 22.6776 11.3299 22.6776 11.3299L18.7176 13.4774C18.7176 13.4774 18.3476 12.8824 18.1301 12.7724C17.9176 12.6549 17.4576 12.6324 17.4576 12.6324Z" fill="#95C7EC" />
  <path d="M19.1101 14.0124L23.7501 11.5924L23.6801 6.59994C23.6801 6.59994 22.9601 6.72244 22.6076 7.19244C22.2551 7.66244 22.3726 10.8199 22.3726 10.8199L18.3576 13.0024L19.1101 14.0124ZM24.8701 10.9749C24.8701 10.9749 26.3901 9.08494 26.6826 8.98994C27.1726 8.82994 29.0651 9.49494 29.0651 9.49494C29.0651 9.49494 29.2751 8.97244 29.1901 8.76994C29.1051 8.56744 26.7776 7.52744 26.2201 7.72494C25.7851 7.87994 24.9001 9.55994 24.9001 9.55994L24.8701 10.9749ZM24.7401 12.6849C24.6401 12.6674 23.8301 13.1974 23.8301 13.1974C23.8301 13.1974 26.2351 14.6549 26.9401 14.6874C27.8101 14.7299 28.3851 14.0949 28.3851 14.0949C28.3851 14.0949 27.7626 14.1124 27.3101 13.9449C26.5726 13.6699 24.7401 12.6849 24.7401 12.6849ZM19.2976 17.5224L18.7276 18.6824C18.7276 18.6824 22.1551 20.8149 22.1701 20.9174C22.1876 21.0174 22.0851 24.7124 22.4401 25.1324C22.7926 25.5524 23.4651 25.7699 23.4651 25.7699C23.4651 25.7699 23.6676 20.3274 23.6501 20.2424C23.6301 20.1574 19.2976 17.5224 19.2976 17.5224ZM23.6701 18.7199C23.6701 18.7199 26.0851 17.0849 26.7401 17.0849C27.3951 17.0849 27.9501 17.4199 27.9501 17.4199L24.7551 19.3524L23.6701 18.7199ZM24.9251 21.1774C24.8401 21.4124 24.7976 22.2924 24.7976 22.2924C24.7976 22.2924 25.5826 24.1399 26.1351 24.3399C26.6901 24.5424 28.8051 23.7524 28.9751 23.5499C29.1426 23.3474 28.8951 22.5274 28.8951 22.5274C28.8951 22.5274 27.2226 23.1899 26.7226 23.0974C26.0826 22.9799 24.9251 21.1774 24.9251 21.1774ZM14.7576 13.7099C14.5151 13.9524 13.4576 15.5049 13.4376 15.8049C13.4176 16.1074 14.5951 18.1199 14.8776 18.2799C15.1601 18.4399 17.4351 18.2799 17.4351 18.2799L18.6026 15.8824C18.6026 15.8824 17.5751 13.6874 17.4151 13.6474C17.2551 13.6074 14.9201 13.5474 14.7576 13.7099ZM15.7951 5.51494C15.9551 5.54494 15.2026 3.27744 15.2026 3.27744L16.8676 1.70494C16.8676 1.70494 16.2476 0.939941 15.9276 0.939941C15.6051 0.939941 13.8526 2.56994 13.8526 2.95494C13.8526 3.33994 14.8201 5.13494 14.8201 5.13494C14.8201 5.13494 15.4901 5.45744 15.7951 5.51494ZM11.3101 4.73244C11.3101 4.73244 11.3126 5.86494 11.6751 6.26744C12.0376 6.66994 14.6176 7.93244 14.6176 7.93244L14.6826 12.7099L15.8051 12.7049V7.14494C15.8051 7.14494 13.5701 6.07744 13.1276 5.87744C12.6851 5.67494 11.6326 5.15494 11.3101 4.73244ZM9.90505 11.9174L13.2876 14.0524L13.8326 13.2274L9.98505 10.9724L9.90505 11.9174ZM7.49255 9.93494C7.49255 9.93494 8.20755 10.6374 8.36255 10.6324C8.66255 10.6224 8.64255 5.94494 8.64255 5.94494C8.64255 5.94494 8.06505 5.72744 7.76255 6.00994C7.45755 6.28994 7.49255 9.93494 7.49255 9.93494ZM7.12755 11.0724C7.84505 11.2549 7.71005 11.7574 7.61005 11.9174C7.51005 12.0774 4.22755 15.2599 4.22755 15.2599C4.22755 15.2599 3.60255 14.9174 3.60255 14.5549C3.60255 14.1924 6.45005 11.8499 6.30005 11.8149C6.18255 11.7899 4.14505 12.1324 3.70255 11.8549C3.41755 11.6774 2.62755 8.70494 2.77755 8.30494C2.89755 7.98244 3.92505 7.88744 3.92505 7.88744C3.92505 7.88744 4.28755 10.5449 4.57005 10.6874C4.85005 10.8299 6.55505 10.9274 7.12755 11.0724ZM12.4251 16.4924L8.41505 18.6924L9.42255 19.5099L12.9251 17.2549L12.4251 16.4924ZM7.85255 20.1949C7.82255 20.5374 6.41255 21.2274 6.29255 21.3299C6.17255 21.4299 4.85255 21.1224 4.77005 21.2424C4.69005 21.3624 3.93255 23.6924 3.79005 23.8299C3.77005 23.8499 2.96755 23.5999 2.90755 23.4674C2.76255 23.1499 3.66255 20.6374 4.06505 20.2749C4.46755 19.9124 6.24005 20.3749 6.30005 20.2549C6.36005 20.1349 3.98505 18.8449 3.80255 18.4424C3.62255 18.0399 4.38755 17.3949 4.38755 17.3949C4.38755 17.3949 7.89255 19.7299 7.85255 20.1949ZM8.37255 21.5249C8.24005 21.4324 7.54255 22.3599 7.54255 22.3599C7.54255 22.3599 7.78755 25.3574 8.01505 25.5499C8.24505 25.7449 8.90755 25.4149 8.90755 25.4149C8.90755 25.4149 8.57255 21.6649 8.37255 21.5249ZM14.8001 19.4824C14.8001 19.4824 14.8376 23.2149 14.7576 23.3549C14.6776 23.4949 11.6401 24.9374 11.2126 25.4899C10.9226 25.8649 10.9976 26.8524 10.9976 26.8524C10.9976 26.8524 15.6626 24.2224 15.7626 24.1424C15.8626 24.0624 15.7851 19.4949 15.7851 19.4949L14.8001 19.4824ZM20.7826 27.1424C20.7826 27.1424 17.5751 25.1549 17.5376 24.8874C17.5001 24.6324 17.4801 23.5274 17.4801 23.5274C17.4801 23.5274 20.2976 25.5099 20.5801 25.9724C20.8626 26.4349 20.7826 27.1424 20.7826 27.1424ZM15.1001 28.3899C15.1501 28.9124 17.0051 30.4024 17.0051 30.4024C17.0051 30.4024 16.4176 31.0374 16.1151 31.0574C15.8126 31.0774 13.8301 29.1749 13.7901 28.8549C13.7501 28.5324 14.7976 26.4999 14.7976 26.4999C14.7976 26.4999 15.2676 26.2749 15.6226 26.1999C15.8476 26.1499 15.0526 27.8824 15.1001 28.3899Z" fill="#AFE3FF" />
  <path d="M17.7501 15.6224C17.7501 15.6224 17.4526 16.2149 17.3051 16.5499C17.1576 16.8849 16.9726 17.4574 16.9726 17.4574C16.9726 17.4574 15.5826 17.5649 15.2126 17.5499C14.7301 17.5324 14.4526 18.4024 15.1576 18.4199C15.8626 18.4374 17.5476 18.4749 17.6951 18.3649C17.8426 18.2549 18.9351 16.2524 18.9351 15.8074C18.9351 15.3624 17.9726 14.1224 17.6201 13.7699C17.2101 13.3599 16.4901 13.7699 16.8976 14.4374C17.3051 15.1049 17.7501 15.6224 17.7501 15.6224ZM23.3576 7.4074C22.7926 7.3874 22.8351 8.1524 22.8551 9.0374C22.8751 9.9224 22.9351 10.5074 23.3976 10.5074C23.9626 10.5074 23.8601 9.2799 23.8601 8.7149C23.8601 8.1524 23.9426 7.4274 23.3576 7.4074ZM15.9476 1.8899C16.2751 2.2174 15.8276 2.7749 15.6451 2.9374C15.4651 3.0974 14.9601 3.4199 14.6176 3.0974C14.2751 2.7749 14.6776 2.3124 15.0001 2.0699C15.3226 1.8274 15.7051 1.6474 15.9476 1.8899ZM15.8251 6.9649C15.3026 6.9049 15.3226 8.1924 15.3426 9.7649C15.3676 11.7799 15.3426 12.7249 15.7651 12.7049C16.2476 12.6824 16.1076 11.6774 16.1076 9.5824C16.1076 8.4324 16.2276 7.0099 15.8251 6.9649ZM3.74259 8.2724C3.06009 8.4849 3.36009 9.3199 3.54009 9.9249C3.65509 10.3099 4.00509 11.4074 4.64759 11.2149C5.29009 11.0224 4.91009 10.1074 4.76759 9.5224C4.63009 8.9374 4.32759 8.0924 3.74259 8.2724ZM23.0751 22.3899C22.6726 22.3899 22.6326 23.1549 22.6326 23.8399C22.6326 24.5249 22.6326 25.0274 23.0951 25.0274C23.5576 25.0274 23.4776 24.0199 23.4776 23.6574C23.4776 23.2949 23.5401 22.3899 23.0751 22.3899ZM15.7851 19.4699C15.4426 19.4849 15.4026 20.2549 15.4026 21.7649C15.4026 23.2749 15.3201 24.1674 15.8251 24.1424C16.2276 24.1224 16.1476 22.6124 16.1476 21.5849C16.1476 20.5574 16.2701 19.4499 15.7851 19.4699ZM9.30259 19.4849C9.50509 19.7199 10.5401 19.0624 11.2851 18.6524C12.1801 18.1599 13.1726 17.6874 12.9626 17.2699C12.7526 16.8524 11.7051 17.5924 10.9801 17.9699C10.2551 18.3499 8.96009 19.0874 9.30259 19.4849ZM6.17759 21.4424C5.96009 21.6049 5.35259 21.5024 5.09009 21.7049C4.82759 21.9074 4.77259 22.5924 4.46509 22.7124C4.00259 22.8924 3.64009 22.5724 3.88009 21.9474C4.12259 21.3224 4.20259 20.8999 4.42259 20.7399C4.64509 20.5799 5.45009 20.6199 5.77259 20.6199C6.33759 20.6174 6.50009 21.1999 6.17759 21.4424Z" fill="#FEFEFE" />
</symbol><symbol id="icon-cactus" viewBox="0 0 32 32" fill="none">
  <path d="M18.8952 16.1276C18.8952 16.1276 20.7727 16.7851 21.0527 15.8001C21.3352 14.8151 20.9127 11.6701 21.0052 10.5901C21.0977 9.51007 21.1002 7.63257 23.4927 7.63257C25.8852 7.63257 26.1677 9.55757 26.2152 11.1526C26.2627 12.7476 26.6277 16.3701 24.7327 18.7251C23.6477 20.0751 21.6177 20.8176 20.0202 21.0076C18.4252 21.1951 16.7827 23.4401 16.7827 23.4401L12.9802 24.9976C12.9802 24.9976 10.3302 24.9601 8.05267 23.0276C5.60017 20.9476 5.83267 17.1001 5.60017 14.8001C5.36767 12.5001 4.62767 9.23007 8.19517 8.95007C11.7627 8.66507 11.0127 13.8276 10.8252 15.0001C10.6377 16.1726 10.5427 19.4101 11.6702 19.9276C12.7952 20.4426 15.3777 19.3176 15.3777 19.3176L18.8952 16.1276Z" fill="#8BC029" />
  <path d="M23.0025 8.87748C22.7525 8.62748 22.415 9.81498 22.44 10.5425C22.4625 11.27 22.7675 15.7525 21.97 16.4775C21.1725 17.205 20.68 17.2975 19.39 17.2975C18.1 17.2975 13.5475 21.7575 13.03 21.7575C12.5125 21.7575 11.41 21.735 10.7075 21.0075C10.0025 20.28 9.605 19.1775 9.5825 17.325C9.56 15.4725 9.4875 12.5625 9.465 12.0925C9.4425 11.6225 9.325 10.4975 8.925 10.4275C8.525 10.3575 8.83 11.225 8.83 11.7175C8.83 12.21 8.89 17.0875 8.9 17.6525C8.9225 18.8025 9.3925 20.7975 10.215 21.43C11.035 22.0625 12.0225 22.3925 12.9125 22.3225C13.805 22.2525 18.7775 17.9125 19.365 17.8875C19.9525 17.865 21.55 18.0175 22.485 16.8325C23.4475 15.6125 23.1425 12.3275 23.1175 11.4125C23.095 10.495 23.095 8.96998 23.0025 8.87748Z" fill="#59951B" />
  <path d="M7.84519 10.6374C7.86269 10.2374 7.09519 11.1524 7.07019 12.5374C7.05019 13.6649 7.25769 17.9299 7.44519 18.9899C7.65519 20.1874 8.24769 21.7049 9.44019 22.7449C10.3552 23.5424 11.6702 23.7999 12.7252 23.7999C13.7802 23.7999 15.7277 23.1424 16.8552 22.0874C17.9827 21.0324 18.7802 19.6699 19.4602 19.6949C20.1402 19.7174 22.3002 19.6474 23.4502 18.2874C24.6002 16.9274 25.0927 14.2749 24.9977 12.0699C24.9102 10.0249 24.8302 8.80244 24.4102 8.87994C24.1527 8.92744 24.3627 10.2874 24.4102 11.3674C24.4577 12.4474 24.4102 14.8399 23.9877 16.0824C23.5652 17.3249 22.6727 18.7574 20.8902 19.0399C19.1077 19.3224 18.7327 19.0624 18.7327 19.0624C18.7327 19.0624 17.2777 21.1249 16.1502 21.9224C15.0227 22.7199 13.2402 23.1649 12.7252 23.1899C12.2102 23.2124 10.6602 22.8624 9.91019 22.2524C9.13769 21.6249 8.26519 20.5174 8.05769 19.1324C7.86519 17.8524 7.68269 14.3349 7.63519 12.9849C7.60019 12.0224 7.82269 11.1524 7.84519 10.6374Z" fill="#59951B" />
  <path d="M16.1501 1.93239C13.9251 1.79739 11.7851 3.99739 11.9276 7.51739C12.0701 11.0374 12.3976 11.4349 12.4201 15.2124C12.4426 18.9899 12.7251 24.0099 12.7726 25.5599C12.8201 27.1099 12.7501 29.4324 14.2501 30.3699C15.7526 31.3074 18.0501 30.8399 18.8026 29.8549C19.5526 28.8699 19.4826 27.2274 19.4601 25.2099C19.4376 23.1924 19.4126 19.7424 19.3426 18.5474C19.2726 17.3524 19.9051 8.59989 19.9526 7.37989C19.9976 6.22239 20.0451 2.16739 16.1501 1.93239Z" fill="#8BC029" />
  <path d="M14.9777 2.96509C14.6127 2.96509 13.5452 4.46759 13.4752 5.99259C13.4052 7.51759 13.3352 10.9201 13.4277 12.8676C13.5202 14.8151 13.7377 20.2551 13.8027 22.0176L14.0127 27.7201C14.0352 28.3301 14.2802 30.2651 14.8102 30.0676C14.9977 29.9976 14.7627 27.1351 14.6452 24.3901C14.5327 21.7651 14.2702 15.4976 14.2227 13.3151C14.1752 11.1326 14.0127 7.40259 14.2002 6.18259C14.3877 4.96259 14.6002 4.25759 14.7877 3.88259C14.9777 3.50509 15.3302 2.96509 14.9777 2.96509ZM17.9352 29.9701C18.3552 29.8176 18.5927 29.0551 18.5927 27.8126C18.5927 26.5701 18.5452 21.6876 18.5452 19.3651C18.5452 17.0426 18.7552 12.3026 18.7552 10.4501C18.7552 8.59759 18.7552 5.99259 18.5452 5.00759C18.3577 4.13759 17.7952 3.08259 17.3477 3.06009C16.9027 3.03759 17.8402 4.16259 17.9102 5.52259C18.0177 7.59509 17.9802 10.3326 17.9327 14.6026C17.8852 18.8726 18.0277 22.2276 18.0027 24.3176C17.9802 26.4051 18.0402 27.3676 18.0027 28.6826C17.9802 29.5026 17.6752 30.0651 17.9352 29.9701ZM16.1277 3.08259C15.7752 3.06509 15.5402 5.26509 15.5877 6.57759C15.6352 7.89259 15.7752 13.9676 15.8227 15.0476C15.8702 16.1276 15.9877 23.9626 15.9877 25.6776C15.9877 27.3901 16.0577 28.9626 16.0827 29.4551C16.1052 29.9476 16.0602 30.2751 16.4352 30.3001C16.8102 30.3226 16.7402 29.8076 16.7402 29.4076C16.7402 29.0076 16.7177 26.9901 16.7177 25.6526C16.7177 24.3151 16.6002 17.0651 16.5777 14.9301C16.5552 12.7951 16.5552 8.31259 16.5552 6.50759C16.5552 4.70259 16.5727 3.10509 16.1277 3.08259Z" fill="#59951B" />
  <path d="M16.1277 1.41509C16.1277 1.41509 16.6427 0.852589 16.8077 0.945089C16.9727 1.03759 16.5027 2.16509 16.2202 2.23509C15.9377 2.30509 15.3277 1.27259 15.4927 1.18009C15.6577 1.08759 16.1277 1.41509 16.1277 1.41509ZM18.6627 3.41009C18.8652 3.71509 20.0227 3.38759 19.9302 3.15259C19.8002 2.82509 19.2502 2.94259 19.2502 2.94259C19.2502 2.94259 19.3202 2.19259 18.9927 2.19259C18.7552 2.19009 18.5202 3.20009 18.6627 3.41009ZM13.1477 1.95509C12.9477 2.01259 13.1002 2.61259 13.1002 2.61259C13.1002 2.61259 12.4902 2.49509 12.4677 2.73009C12.4452 2.96509 13.3602 3.48009 13.6402 3.17509C13.9227 2.87009 13.4352 1.87009 13.1477 1.95509Z" fill="#FFBF1B" />
  <path d="M11.4348 5.8626C11.2948 6.1101 11.8573 6.5776 11.8573 6.5776C11.8573 6.5776 11.1773 7.0476 11.3173 7.2351C11.4573 7.4226 12.6548 7.0251 12.6673 6.6376C12.6773 6.2501 11.5648 5.6351 11.4348 5.8626ZM17.4873 5.8401C17.3573 5.7976 16.5723 6.8601 16.8423 7.1651C17.1123 7.4701 18.2623 6.9301 18.2498 6.7651C18.2373 6.6001 17.5448 6.5551 17.5448 6.5551C17.5448 6.5551 17.5948 5.8751 17.4873 5.8401ZM13.0198 11.4601C13.0598 11.7976 11.8223 12.4451 11.6698 12.2001C11.5173 11.9551 12.1623 11.4251 12.1623 11.4251C12.1623 11.4251 11.6973 10.8126 11.7873 10.6501C11.9073 10.4401 12.9748 11.0726 13.0198 11.4601ZM19.5048 10.6026C19.3373 10.5251 18.4248 11.2476 18.5073 11.7276C18.5898 12.2076 19.9148 11.9501 19.9148 11.7976C19.9148 11.6451 19.2473 11.3751 19.2473 11.3751C19.2473 11.3751 19.6573 10.6726 19.5048 10.6026ZM14.0623 14.1926C13.9798 14.2651 14.4973 14.9201 14.4973 14.9201C14.4973 14.9201 13.8648 15.4251 13.9348 15.6001C14.0048 15.7751 15.2948 15.6001 15.3198 15.0126C15.3398 14.4701 14.2498 14.0276 14.0623 14.1926ZM11.8898 17.2351C11.8423 17.3476 12.3823 17.9401 12.3823 17.9401C12.3823 17.9401 11.7598 18.6551 11.9023 18.8076C12.0423 18.9601 13.2273 18.5026 13.2748 18.0326C13.3223 17.5626 11.9948 16.9776 11.8898 17.2351ZM18.2623 17.0301C18.3198 17.6526 19.4823 17.7351 19.5773 17.5351C19.6498 17.3826 19.0148 16.9726 19.0148 16.9726C19.0148 16.9726 19.5023 16.3226 19.4148 16.2226C19.2598 16.0451 18.2198 16.5751 18.2623 17.0301ZM12.7698 21.1076C12.6598 21.2476 13.2273 21.8226 13.2273 21.8226C13.2273 21.8226 12.4198 22.2126 12.4998 22.4326C12.5573 22.5976 13.8673 22.5551 13.9898 22.0451C14.1773 21.2601 12.8523 21.0026 12.7698 21.1076ZM16.4623 24.9101C16.4698 25.3701 17.7873 25.6251 17.8823 25.4626C17.9773 25.2976 17.2023 24.7351 17.2023 24.7351C17.2023 24.7351 17.7423 24.0426 17.6598 23.8901C17.5773 23.7376 16.4498 24.2776 16.4623 24.9101ZM18.9198 22.3701C18.9673 22.8976 20.3323 23.1201 20.3623 22.8751C20.3848 22.6876 19.7173 22.2776 19.7173 22.2776C19.7173 22.2776 20.1748 21.7976 20.0698 21.6201C19.9648 21.4451 18.8873 21.9951 18.9198 22.3701ZM13.9698 27.2151C14.0173 27.7201 13.0198 28.2251 12.9373 28.0951C12.8248 27.9201 13.3248 27.1926 13.3248 27.1926C13.3248 27.1926 12.7848 26.5001 12.8548 26.3826C12.9648 26.1951 13.9223 26.7101 13.9698 27.2151Z" fill="#FFE068" />
  <path d="M19.9924 25.8299C20.0499 26.0099 19.6049 26.6274 19.6049 26.6274C19.6049 26.6274 20.3674 27.1799 20.2499 27.3549C20.1324 27.5299 19.0299 27.3674 18.9124 26.8024C18.7949 26.2424 19.9199 25.6074 19.9924 25.8299ZM23.8374 7.49988C23.8374 7.49988 23.3774 6.92488 23.1699 7.05738C23.0499 7.13488 23.3499 8.12238 23.8574 8.13238C24.3649 8.14238 24.6624 7.03738 24.4549 6.98988C24.2874 6.95238 23.8374 7.49988 23.8374 7.49988ZM26.3424 8.83988C26.3424 8.83988 26.4224 8.24988 26.3324 8.14988C26.2424 8.04988 25.5249 8.95988 25.7624 9.36738C26.0024 9.77738 27.1199 9.13738 27.0399 9.00738C26.9599 8.87988 26.3424 8.83988 26.3424 8.83988ZM21.0749 8.79988C21.0749 8.79988 20.3899 9.01238 20.3899 9.19488C20.3899 9.37488 21.4674 9.60988 21.7399 9.15238C22.0124 8.69488 21.0649 8.01238 20.9574 8.10988C20.8474 8.20238 21.0749 8.79988 21.0749 8.79988ZM25.4899 16.8674C25.3949 17.2699 26.2524 18.0874 26.4399 17.9574C26.5424 17.8874 26.1699 17.0424 26.1699 17.0424C26.1699 17.0424 26.8499 16.7724 26.8374 16.6549C26.8249 16.5374 25.5949 16.4199 25.4899 16.8674Z" fill="#FFBF1B" />
  <path d="M26.0526 13.4174C26.0451 13.7674 27.3426 13.9799 27.4126 13.8399C27.4826 13.6999 26.8726 13.1824 26.8726 13.1824C26.8726 13.1824 27.3426 12.5849 27.2001 12.4774C27.0576 12.3699 26.0651 12.8774 26.0526 13.4174ZM6.03505 13.7999C6.06005 14.1274 5.09755 14.6574 4.98005 14.5049C4.86255 14.3524 5.30755 13.8124 5.30755 13.8124C5.30755 13.8124 4.73255 13.4374 4.87255 13.2499C5.01255 13.0599 5.99755 13.3549 6.03505 13.7999ZM6.32005 15.5174C6.24755 15.6299 6.73005 16.1274 6.73005 16.1274C6.73005 16.1274 6.26005 16.7599 6.39005 16.8899C6.52005 17.0199 7.36505 16.6399 7.34005 16.0699C7.31755 15.5299 6.42505 15.3524 6.32005 15.5174Z" fill="#FFE068" />
  <path d="M8.36009 8.5351C8.36009 8.5351 7.89009 7.9901 7.75009 8.0101C7.55009 8.0401 7.72759 9.1476 8.31259 9.1476C8.90009 9.1476 9.11009 8.0676 8.98009 8.0101C8.85509 7.9526 8.36009 8.5351 8.36009 8.5351ZM10.2026 10.0976C10.5201 10.4851 11.5626 9.8151 11.5176 9.6876C11.4701 9.5576 10.7676 9.5826 10.7676 9.5826C10.7676 9.5826 10.8626 8.9601 10.6501 8.8901C10.4376 8.8176 9.93759 9.7726 10.2026 10.0976ZM6.25009 10.2501C6.06259 10.6251 5.11259 10.4251 5.06509 10.2376C5.01759 10.0501 5.64009 9.8851 5.64009 9.8851C5.64009 9.8851 5.45259 9.2976 5.55759 9.2276C5.66259 9.1601 6.53759 9.6726 6.25009 10.2501ZM6.66259 19.2426C6.82259 19.6301 6.07509 20.3801 5.93509 20.2401C5.85259 20.1576 6.01759 19.4651 6.01759 19.4651C6.01759 19.4651 5.38759 19.2076 5.42009 19.1026C5.45509 18.9851 6.47509 18.7851 6.66259 19.2426Z" fill="#FFBF1B" />
</symbol><symbol id="icon-gem" viewBox="0 0 32 32" fill="none">
  <g clip-path="url(#clip0_8003_1486)">
    <path d="M0.415039 2.62482L11.0425 0.444824L10.5775 7.45482L0.415039 2.62482Z" fill="#E1F5FE" />
    <path d="M5.19504 17.225L0.415039 2.625L10.5775 7.455L5.19504 17.225Z" fill="#81D4FA" />
    <path d="M16.0748 15.9251L10.5773 7.45508L5.19482 17.2251L16.0748 15.9251Z" fill="#64B5F6" />
    <path d="M29.3749 31.585L31.5549 20.9575L24.5449 21.4225L29.3749 31.585Z" fill="#0288D1" />
    <path d="M14.7749 26.8049L29.3749 31.5849L24.5449 21.4224L14.7749 26.8049Z" fill="#81D4FA" />
    <path d="M16.0749 15.9248L24.5449 21.4223L14.7749 26.8048L16.0749 15.9248Z" fill="#E1F5FE" />
    <path d="M14.7748 26.8048L16.0748 15.9248L5.19482 17.2248L14.7748 26.8048Z" fill="#B2EBF2" />
    <path d="M18.9876 2.89232L29.1076 13.0123L31.5551 20.9573L24.5451 21.4223L16.0751 15.9248L10.5776 7.45482L11.0426 0.444824L18.9876 2.89232Z" fill="#B3E5FC" />
    <path d="M0.560039 31.44L0.415039 2.625L5.19504 17.225L0.560039 31.44Z" fill="#1E88E5" />
    <path d="M0.560059 31.4402L29.3751 31.5852L14.7751 26.8052L0.560059 31.4402Z" fill="#B3E5FC" />
    <path d="M14.7751 26.8051L0.560059 31.4401L5.19506 17.2251L14.7751 26.8051Z" fill="#E1F5FE" />
  </g>
  <defs>
    <clipPath id="clip0_8003_1486">
      <rect width="32" height="32" fill="white" />
    </clipPath>
  </defs>
</symbol></defs></svg>